<?xml version="1.0" encoding="UTF-8" standalone="no"?>
<!DOCTYPE svg PUBLIC "-//W3C//DTD SVG 1.1//EN"
 "http://www.w3.org/Graphics/SVG/1.1/DTD/svg11.dtd">
<!-- Generated by graphviz version 2.36.0 (20140111.2315)
 -->
<!-- Title: models_diagram Pages: 1 -->
<svg width="441pt" height="158pt"
 viewBox="0.00 0.00 441.00 158.00" xmlns="http://www.w3.org/2000/svg" xmlns:xlink="http://www.w3.org/1999/xlink">
<g id="graph0" class="graph" transform="scale(1 1) rotate(0) translate(4 154)">
<title>models_diagram</title>
<polygon fill="none" stroke="none" points="-4,4 -4,-154 437,-154 437,4 -4,4"/>
<!-- _diagram_info -->
<g id="node1" class="node"><title>_diagram_info</title>
<text text-anchor="start" x="8" y="-135.6" font-family="Times,serif" font-size="13.00">Models diagram</text>
<text text-anchor="start" x="8" y="-121.6" font-family="Times,serif" font-size="13.00">Date: Apr 08 2016 &#45; 22:03</text>
<text text-anchor="start" x="8" y="-107.6" font-family="Times,serif" font-size="13.00">Migration version: 20160409005420</text>
<text text-anchor="start" x="8" y="-93.6" font-family="Times,serif" font-size="13.00">Generated by RailRoady 1.4.2</text>
<text text-anchor="start" x="8" y="-79.6" font-family="Times,serif" font-size="13.00">http://railroady.prestonlee.com</text>
</g>
<!-- Operation -->
<g id="node2" class="node"><title>Operation</title>
<ellipse fill="none" stroke="black" cx="334" cy="-18" rx="46.2191" ry="18"/>
<text text-anchor="middle" x="334" y="-14.3" font-family="Times,serif" font-size="14.00">Operation</text>
</g>
<!-- Employee -->
<g id="node3" class="node"><title>Employee</title>
<ellipse fill="none" stroke="black" cx="279" cy="-111" rx="46.1964" ry="18"/>
<text text-anchor="middle" x="279" y="-107.3" font-family="Times,serif" font-size="14.00">Employee</text>
</g>
<!-- Employee&#45;&gt;Operation -->
<g id="edge1" class="edge"><title>Employee&#45;&gt;Operation</title>
<path fill="none" stroke="#ac4c8a" d="M293.29,-86.3571C301.116,-73.4086 310.814,-57.3626 318.781,-44.1804"/>
<ellipse fill="none" stroke="#ac4c8a" cx="291.157" cy="-89.8859" rx="4.00002" ry="4.00002"/>
<polygon fill="#ac4c8a" stroke="#ac4c8a" points="318.803,-44.1433 327.827,-37.9127 321.39,-39.8641 323.976,-35.585 323.976,-35.585 323.976,-35.585 321.39,-39.8641 320.125,-33.2573 318.803,-44.1433 318.803,-44.1433"/>
</g>
<!-- Inventory -->
<g id="node4" class="node"><title>Inventory</title>
<ellipse fill="none" stroke="black" cx="389" cy="-111" rx="44.271" ry="18"/>
<text text-anchor="middle" x="389" y="-107.3" font-family="Times,serif" font-size="14.00">Inventory</text>
</g>
<!-- Inventory&#45;&gt;Operation -->
<g id="edge2" class="edge"><title>Inventory&#45;&gt;Operation</title>
<path fill="none" stroke="#6a1fa2" d="M374.71,-86.3571C366.583,-72.9106 356.437,-56.1238 348.307,-42.6724"/>
<ellipse fill="none" stroke="#6a1fa2" cx="376.843" cy="-89.8859" rx="4.00002" ry="4.00002"/>
<ellipse fill="#6a1fa2" stroke="#6a1fa2" cx="346.093" cy="-39.0083" rx="4.00002" ry="4.00002"/>
</g>
</g>
</svg>
