<?xml version="1.0" encoding="UTF-8" standalone="no"?>
<!DOCTYPE svg PUBLIC "-//W3C//DTD SVG 1.1//EN"
 "http://www.w3.org/Graphics/SVG/1.1/DTD/svg11.dtd">
<!-- Generated by graphviz version 2.36.0 (20140111.2315)
 -->
<!-- Title: models_diagram Pages: 1 -->
<svg width="746pt" height="274pt"
 viewBox="0.00 0.00 746.00 274.00" xmlns="http://www.w3.org/2000/svg" xmlns:xlink="http://www.w3.org/1999/xlink">
<g id="graph0" class="graph" transform="scale(1 1) rotate(0) translate(4 270)">
<title>models_diagram</title>
<polygon fill="none" stroke="none" points="-4,4 -4,-270 742,-270 742,4 -4,4"/>
<!-- _diagram_info -->
<g id="node1" class="node"><title>_diagram_info</title>
<text text-anchor="start" x="8" y="-229.6" font-family="Times,serif" font-size="13.00">Models diagram</text>
<text text-anchor="start" x="8" y="-215.6" font-family="Times,serif" font-size="13.00">Date: Apr 08 2016 &#45; 22:03</text>
<text text-anchor="start" x="8" y="-201.6" font-family="Times,serif" font-size="13.00">Migration version: 20160409005420</text>
<text text-anchor="start" x="8" y="-187.6" font-family="Times,serif" font-size="13.00">Generated by RailRoady 1.4.2</text>
<text text-anchor="start" x="8" y="-173.6" font-family="Times,serif" font-size="13.00">http://railroady.prestonlee.com</text>
</g>
<!-- Operation -->
<g id="node2" class="node"><title>Operation</title>
<path fill="none" stroke="black" d="M375,-1C375,-1 595,-1 595,-1 601,-1 607,-7 607,-13 607,-13 607,-95 607,-95 607,-101 601,-107 595,-107 595,-107 375,-107 375,-107 369,-107 363,-101 363,-95 363,-95 363,-13 363,-13 363,-7 369,-1 375,-1"/>
<text text-anchor="middle" x="485" y="-91.8" font-family="Times,serif" font-size="14.00">Operation</text>
<polyline fill="none" stroke="black" points="363,-84 607,-84 "/>
<text text-anchor="start" x="371" y="-68.8" font-family="Times,serif" font-size="14.00">id :integer</text>
<text text-anchor="start" x="371" y="-53.8" font-family="Times,serif" font-size="14.00">employee_id :integer</text>
<text text-anchor="start" x="371" y="-38.8" font-family="Times,serif" font-size="14.00">created_at :timestamp without time zone</text>
<text text-anchor="start" x="371" y="-23.8" font-family="Times,serif" font-size="14.00">updated_at :timestamp without time zone</text>
<text text-anchor="start" x="371" y="-8.8" font-family="Times,serif" font-size="14.00">inventory_id :integer</text>
</g>
<!-- Employee -->
<g id="node3" class="node"><title>Employee</title>
<path fill="none" stroke="black" d="M244,-152C244,-152 464,-152 464,-152 470,-152 476,-158 476,-164 476,-164 476,-246 476,-246 476,-252 470,-258 464,-258 464,-258 244,-258 244,-258 238,-258 232,-252 232,-246 232,-246 232,-164 232,-164 232,-158 238,-152 244,-152"/>
<text text-anchor="middle" x="354" y="-242.8" font-family="Times,serif" font-size="14.00">Employee</text>
<polyline fill="none" stroke="black" points="232,-235 476,-235 "/>
<text text-anchor="start" x="240" y="-219.8" font-family="Times,serif" font-size="14.00">id :integer</text>
<text text-anchor="start" x="240" y="-204.8" font-family="Times,serif" font-size="14.00">name :character varying</text>
<text text-anchor="start" x="240" y="-189.8" font-family="Times,serif" font-size="14.00">email :character varying</text>
<text text-anchor="start" x="240" y="-174.8" font-family="Times,serif" font-size="14.00">created_at :timestamp without time zone</text>
<text text-anchor="start" x="240" y="-159.8" font-family="Times,serif" font-size="14.00">updated_at :timestamp without time zone</text>
</g>
<!-- Employee&#45;&gt;Operation -->
<g id="edge1" class="edge"><title>Employee&#45;&gt;Operation</title>
<path fill="none" stroke="#34e2cd" d="M405.262,-145.695C414.185,-135.546 423.478,-124.975 432.436,-114.787"/>
<ellipse fill="none" stroke="#34e2cd" cx="402.459" cy="-148.883" rx="4.00002" ry="4.00002"/>
<polygon fill="#34e2cd" stroke="#34e2cd" points="432.606,-114.594 442.588,-110.055 435.907,-110.839 439.208,-107.084 439.208,-107.084 439.208,-107.084 435.907,-110.839 435.829,-104.112 432.606,-114.594 432.606,-114.594"/>
</g>
<!-- Inventory -->
<g id="node4" class="node"><title>Inventory</title>
<path fill="none" stroke="black" d="M506,-144.5C506,-144.5 726,-144.5 726,-144.5 732,-144.5 738,-150.5 738,-156.5 738,-156.5 738,-253.5 738,-253.5 738,-259.5 732,-265.5 726,-265.5 726,-265.5 506,-265.5 506,-265.5 500,-265.5 494,-259.5 494,-253.5 494,-253.5 494,-156.5 494,-156.5 494,-150.5 500,-144.5 506,-144.5"/>
<text text-anchor="middle" x="616" y="-250.3" font-family="Times,serif" font-size="14.00">Inventory</text>
<polyline fill="none" stroke="black" points="494,-242.5 738,-242.5 "/>
<text text-anchor="start" x="502" y="-227.3" font-family="Times,serif" font-size="14.00">id :integer</text>
<text text-anchor="start" x="502" y="-212.3" font-family="Times,serif" font-size="14.00">sku :character varying</text>
<text text-anchor="start" x="502" y="-197.3" font-family="Times,serif" font-size="14.00">size :integer</text>
<text text-anchor="start" x="502" y="-182.3" font-family="Times,serif" font-size="14.00">description :text</text>
<text text-anchor="start" x="502" y="-167.3" font-family="Times,serif" font-size="14.00">created_at :timestamp without time zone</text>
<text text-anchor="start" x="502" y="-152.3" font-family="Times,serif" font-size="14.00">updated_at :timestamp without time zone</text>
</g>
<!-- Inventory&#45;&gt;Operation -->
<g id="edge2" class="edge"><title>Inventory&#45;&gt;Operation</title>
<path fill="none" stroke="#4a05f3" d="M558.113,-138.159C550.82,-129.864 543.4,-121.424 536.22,-113.258"/>
<ellipse fill="none" stroke="#4a05f3" cx="560.831" cy="-141.25" rx="4.00002" ry="4.00002"/>
<ellipse fill="#4a05f3" stroke="#4a05f3" cx="533.424" cy="-110.078" rx="4.00002" ry="4.00002"/>
</g>
</g>
</svg>
